<?xml version="1.0" encoding="UTF-8" standalone="no"?>
<svg
   xmlns:dc="http://purl.org/dc/elements/1.1/"
   xmlns:cc="http://creativecommons.org/ns#"
   xmlns:rdf="http://www.w3.org/1999/02/22-rdf-syntax-ns#"
   xmlns:svg="http://www.w3.org/2000/svg"
   xmlns="http://www.w3.org/2000/svg"
   xmlns:sodipodi="http://sodipodi.sourceforge.net/DTD/sodipodi-0.dtd"
   xmlns:inkscape="http://www.inkscape.org/namespaces/inkscape"
   data-name="Layer 1"
   id="Layer_1"
   viewBox="0 0 64 64"
   version="1.1"
   sodipodi:docname="50n@2x.svg"
   inkscape:version="0.92.5 (2060ec1f9f, 2020-04-08)">
  <metadata
     id="metadata31">
    <rdf:RDF>
      <cc:Work
         rdf:about="">
        <dc:format>image/svg+xml</dc:format>
        <dc:type
           rdf:resource="http://purl.org/dc/dcmitype/StillImage" />
      </cc:Work>
    </rdf:RDF>
  </metadata>
  <sodipodi:namedview
     pagecolor="#ffffff"
     bordercolor="#666666"
     borderopacity="1"
     objecttolerance="10"
     gridtolerance="10"
     guidetolerance="10"
     inkscape:pageopacity="0"
     inkscape:pageshadow="2"
     inkscape:window-width="640"
     inkscape:window-height="480"
     id="namedview29"
     showgrid="false"
     inkscape:zoom="7.3693785"
     inkscape:cx="19.957879"
     inkscape:cy="28.641579"
     inkscape:current-layer="Layer_1" />
  <defs
     id="defs4">
    <style
       id="style2">.cls-1{fill:#efcc00;}.cls-2{fill:#e0e0e0;}.cls-3,.cls-4{fill:none;stroke-linecap:round;stroke-miterlimit:10;stroke-width:3px;}.cls-3{stroke:#b9c1c6;}.cls-4{stroke:#a5a9aa;}</style>
  </defs>
  <title
     id="title6" />
  <path
     class="cls-1"
     d="M44.54,41.47A23,23,0,0,1,24.49,11.73,1,1,0,0,0,23,10.59,23,23,0,1,0,54.41,42a1,1,0,0,0-1.14-1.47A23.06,23.06,0,0,1,44.54,41.47Z"
     id="path8" />
  <path
     class="cls-2"
     d="M51.25,46.24c-4.84,0-10.82,0-11,0a20.18,20.18,0,0,1-16-9.75h-12a23,23,0,0,0,39,9.74Z"
     id="path10" />
  <line
     class="cls-3"
     x1="25.5"
     x2="10.83"
     y1="36.5"
     y2="36.5"
     id="line12" />
  <line
     class="cls-3"
     x1="9.54"
     x2="19.22"
     y1="41.5"
     y2="41.5"
     id="line14" />
  <line
     class="cls-3"
     x1="7.85"
     x2="53.86"
     y1="46.5"
     y2="46.5"
     id="line16" />
  <line
     class="cls-4"
     x1="34.49"
     x2="55.65"
     y1="51.5"
     y2="51.5"
     id="line18" />
  <line
     class="cls-3"
     x1="11.85"
     x2="27.3"
     y1="51.5"
     y2="51.5"
     id="line20" />
  <line
     class="cls-4"
     x1="26.4"
     x2="45.75"
     y1="56.5"
     y2="56.5"
     id="line22" />
  <line
     class="cls-4"
     x1="15.64"
     x2="20.12"
     y1="56.5"
     y2="56.5"
     id="line24" />
  <line
     class="cls-3"
     x1="24.61"
     x2="30.89"
     y1="41.5"
     y2="41.5"
     id="line26" />
</svg>
